<?xml version="1.0" encoding="UTF-8" standalone="no"?>
<!-- Created with Inkscape (http://www.inkscape.org/) -->

<svg
   width="125.67708mm"
   height="125.67709mm"
   viewBox="0 0 125.67708 125.67709"
   version="1.1"
   id="svg5"
   inkscape:export-filename="yedia-logo2.svg"
   inkscape:export-xdpi="400"
   inkscape:export-ydpi="400"
   sodipodi:docname="yedia.svg"
   xmlns:inkscape="http://www.inkscape.org/namespaces/inkscape"
   xmlns:sodipodi="http://sodipodi.sourceforge.net/DTD/sodipodi-0.dtd"
   xmlns="http://www.w3.org/2000/svg"
   xmlns:svg="http://www.w3.org/2000/svg">
  <sodipodi:namedview
     id="namedview7"
     pagecolor="#ffffff"
     bordercolor="#000000"
     borderopacity="0.25"
     inkscape:showpageshadow="2"
     inkscape:pageopacity="0.0"
     inkscape:pagecheckerboard="0"
     inkscape:deskcolor="#d1d1d1"
     inkscape:document-units="mm"
     showgrid="false"
     showguides="true"
     inkscape:zoom="0.56580246"
     inkscape:cx="227.11107"
     inkscape:cy="479.84945"
     inkscape:window-width="1638"
     inkscape:window-height="975"
     inkscape:window-x="154"
     inkscape:window-y="26"
     inkscape:window-maximized="0"
     inkscape:current-layer="layer1" />
  <defs
     id="defs2">
    <inkscape:path-effect
       effect="skeletal"
       id="path-effect7864"
       is_visible="true"
       lpeversion="1"
       pattern="M 0,4.9921382 C 0,2.2364779 2.2364779,0 4.9921382,0 c 2.7556604,0 4.9921383,2.2364779 4.9921383,4.9921382 0,2.7556604 -2.2364779,4.9921383 -4.9921383,4.9921383 C 2.2364779,9.9842765 0,7.7477986 0,4.9921382 Z"
       copytype="single_stretched"
       prop_scale="1.940719"
       scale_y_rel="false"
       spacing="0"
       normal_offset="0"
       tang_offset="0"
       prop_units="false"
       vertical_pattern="false"
       hide_knot="false"
       fuse_tolerance="0" />
    <inkscape:path-effect
       effect="spiro"
       id="path-effect7862"
       is_visible="true"
       lpeversion="1" />
  </defs>
  <g
     inkscape:label="Layer 1"
     inkscape:groupmode="layer"
     id="layer1">
    <path
       style="fill:#f43f5e;fill-opacity:1;stroke:none;stroke-width:4;stroke-dasharray:none;stroke-opacity:1"
       d="m 61.714246,69.988726 c -1.798388,-1.005694 0.514447,-13.676 17.322904,-24.322217 7.519067,-4.752316 18.102148,-8.520839 30.52958,-7.955125 9.99184,0.467401 20.87869,3.798201 30.48428,10.928991 0,4e-6 1e-5,8e-6 1e-5,8e-6 8.45808,6.297598 15.59578,15.3912 19.56254,26.452529 3.40536,9.508718 4.34824,20.243792 2.06883,30.888758 -1.49604,6.9369 -4.36025,13.65065 -8.5196,19.66508 -1.9261,2.78514 -4.10224,5.37981 -6.49927,7.74936 -7.80901,7.69273 -17.65023,12.61299 -27.9038,14.41645 -10.9351,1.90085 -21.872705,0.10145 -31.065915,-4.4275 -9.238077,-4.5855 -16.301745,-11.6995 -20.814865,-19.63342 -5.138516,-9.06765 -6.785376,-18.80305 -6.067739,-27.400152 0,0 4e-6,-9e-6 4e-6,-9e-6 0.91338,-10.75708 5.39527,-19.37341 10.327388,-25.202137 11.152131,-13.150383 22.188787,-13.375197 22.87705,-11.610813 0.344132,0.882192 -1.423266,2.420999 -4.30346,5.09606 -2.785982,2.587559 -6.968303,6.675357 -10.159996,12.471947 -2.858242,5.17379 -5.093527,12.095288 -4.791932,19.710232 10e-7,2e-6 10e-7,5e-6 0,7e-6 0.227864,6.063015 2.120468,12.718825 6.025099,18.419925 3.398624,4.9885 8.468436,9.39222 14.49819,11.96883 5.963386,2.58134 13.164286,3.41993 20.027996,2.01868 6.42841,-1.2909 12.81054,-4.66118 17.73806,-9.57852 1.52433,-1.51287 2.92287,-3.19342 4.17259,-5.00709 2.69747,-3.91472 4.62376,-8.33474 5.66521,-12.82906 1.61633,-6.905325 1.16198,-14.237509 -0.88148,-20.715798 -2.38271,-7.570872 -7.02247,-14.198317 -12.59027,-18.932901 0,0 -1e-5,-4e-6 -1e-5,-4e-6 -6.31877,-5.395497 -13.98573,-8.533858 -21.19692,-9.630492 -8.994496,-1.383616 -17.480236,0.286837 -24.013068,2.941675 -7.257483,2.939076 -12.628928,7.241393 -16.050335,10.152446 -3.527987,3.001735 -5.541877,4.867107 -6.441071,4.36426 z"
       id="path7860"
       inkscape:path-effect="#path-effect7862;#path-effect7864"
       inkscape:original-d="M 61.714246,69.988726 C 46.948795,50.273096 120.08476,78.178942 150.80974,78.093331 181.53472,78.007717 107.449,115.49485 91.488684,135.2953 75.528361,155.09575 98.453992,84.204341 94.015638,59.538531"
       class="UnoptimicedTransforms"
       sodipodi:nodetypes="cssc"
       transform="translate(-47.82531,-23.743968)" />
    <path
       style="fill:#f43f5e;fill-opacity:1;stroke:#f43f5e;stroke-width:2.13194;stroke-dasharray:none;stroke-opacity:1"
       d="m 80.97386,22.45248 c 0,0 1.150633,-16.362139 1.510084,-16.6277666 0.39521,-0.2920618 6.00995,8.2303486 6.00995,8.2303486 0,0 5.8964,-7.398943 6.163192,-7.2778607 0.196289,0.089084 1.853329,9.5044827 1.853329,9.5044827 0,0 10.465185,-2.171521 10.594665,-1.831753 0.10084,0.264483 -11.315873,13.402543 -11.315873,13.402543 z"
       id="path8650"
       sodipodi:nodetypes="cscscscc" />
  </g>
</svg>
